<?xml version="1.0" standalone="no"?>
<!DOCTYPE svg PUBLIC "-//W3C//DTD SVG 20010904//EN"
 "http://www.w3.org/TR/2001/REC-SVG-20010904/DTD/svg10.dtd">
<svg version="1.0" xmlns="http://www.w3.org/2000/svg"
 width="2134.000000pt" height="2134.000000pt" viewBox="0 0 2134.000000 2134.000000"
 preserveAspectRatio="xMidYMid meet">
<metadata>
Created by potrace 1.14, written by Peter Selinger 2001-2017
</metadata>
<g transform="translate(0.000000,2134.000000) scale(0.100000,-0.100000)"
fill="#000000" stroke="none">
<path d="M4256 18741 c-2 -3 -4 -872 -4 -1931 0 -1779 1 -1925 16 -1937 10 -7
53 -38 97 -68 44 -30 88 -62 99 -70 17 -13 19 -30 19 -188 l0 -173 41 -30 c22
-16 135 -93 251 -171 115 -78 215 -146 220 -150 14 -11 600 -401 1108 -737
230 -152 583 -386 785 -520 202 -133 495 -327 652 -431 157 -104 439 -291 628
-417 189 -125 347 -228 352 -228 5 0 10 -3 12 -7 4 -10 65 -53 73 -53 4 0 13
-6 20 -12 7 -7 103 -71 212 -143 270 -177 1696 -1122 1708 -1132 6 -4 28 -20
50 -34 133 -88 2657 -1766 5170 -3437 666 -443 1234 -820 1263 -839 l52 -34 0
6115 c0 5815 -1 6115 -17 6120 -10 3 -43 5 -73 5 -30 -1 -74 -1 -97 0 l-43 1
-2 253 -3 252 -580 1 c-319 1 -585 -1 -591 -3 -8 -3 -11 -1335 -11 -5004 0
-2750 -3 -5002 -6 -5005 -3 -4 -70 36 -149 88 -585 388 -1013 671 -1188 787
-113 75 -209 138 -215 140 -5 2 -12 7 -15 11 -3 4 -25 19 -50 34 -25 15 -56
35 -70 45 -14 11 -207 139 -430 287 -613 405 -1456 964 -2240 1485 -1619 1076
-3126 2078 -3135 2086 -5 4 -22 14 -37 22 -16 8 -28 18 -28 23 0 4 -6 8 -13 8
-8 0 -22 9 -32 20 -10 11 -22 20 -26 20 -10 0 -163 103 -167 113 -2 4 -9 7
-16 7 -7 0 -21 9 -31 20 -10 11 -21 20 -25 20 -7 0 -286 185 -1483 982 -279
186 -512 338 -516 338 -5 0 -11 3 -13 8 -1 4 -29 24 -60 46 l-58 38 0 1438 0
1438 -97 0 c-54 0 -106 1 -115 1 -17 1 -18 20 -18 255 l0 254 -585 0 c-322 0
-587 -3 -589 -7z"/>
<path d="M4253 8023 l2 -4908 113 -3 c98 -2 112 -5 113 -20 0 -9 1 -122 1
-250 1 -144 5 -235 11 -239 8 -5 1055 -8 1149 -4 17 1 18 191 20 3811 l3 3810
35 -24 c19 -13 143 -95 275 -182 401 -262 1287 -855 1565 -1047 103 -71 788
-528 812 -542 10 -5 516 -343 1125 -750 610 -407 1116 -744 1125 -750 9 -5 71
-47 138 -92 66 -46 125 -83 130 -83 4 0 10 -3 12 -8 2 -6 346 -238 410 -277
16 -10 380 -254 1113 -746 438 -295 1186 -795 2320 -1554 484 -324 908 -608
943 -632 35 -24 67 -43 73 -43 5 0 9 -4 9 -8 0 -5 12 -15 28 -23 15 -8 29 -16
32 -19 5 -5 113 -78 142 -95 9 -5 260 -173 559 -373 298 -200 548 -366 555
-369 12 -4 14 109 14 724 l0 730 -112 74 -113 75 -5 181 -5 182 -695 462
c-382 255 -883 588 -1113 741 -229 153 -421 278 -426 278 -5 0 -11 4 -13 8 -3
8 -472 323 -493 331 -5 2 -12 7 -15 10 -3 3 -63 45 -135 92 -71 47 -170 112
-218 145 -49 32 -103 68 -121 79 -17 11 -144 95 -281 186 -138 91 -556 369
-930 617 -374 249 -687 456 -695 462 -33 23 -2058 1366 -2335 1549 -38 25 -74
49 -80 53 -5 4 -534 357 -1175 784 -641 428 -1264 843 -1385 924 -293 196
-1970 1308 -2371 1573 -56 37 -104 67 -107 67 -3 0 -5 -2208 -4 -4907z"/>
</g>
</svg>
