<?xml version="1.0" encoding="utf-8"?>
<!-- Generator: Adobe Illustrator 24.1.0, SVG Export Plug-In . SVG Version: 6.00 Build 0)  -->
<svg version="1.1" id="Layer_1" xmlns="http://www.w3.org/2000/svg" xmlns:xlink="http://www.w3.org/1999/xlink" x="0px" y="0px"
	 viewBox="0 0 512 512" style="enable-background:new 0 0 512 512;" xml:space="preserve">
<style type="text/css">
	.st0{fill:#7f8fa6;}
</style>
<g>
	<path class="st0" d="M105.11,68.36h27.95v0.26v77.38c9.14,6.04,36.14,23.98,81.01,53.83c55.73,37.1,88.34,58.75,97.83,64.96
		c1.72,1.21,23.98,15.96,66.77,44.26V68.62l0.26-0.26h27.95c0.17,0,0.26,0.09,0.26,0.26v293.23h-0.26l-89.55-59.53
		c-65.57-43.65-101.28-67.38-107.15-71.17c-5.18-3.45-31.23-20.7-78.16-51.76c-18.12-12.07-27.18-18.2-27.18-18.38v-92.4
		C104.86,68.45,104.94,68.36,105.11,68.36z M104.86,207.86c51.59,34.16,82.3,54.61,92.14,61.34l87.74,58.23
		c68.15,45.21,106.72,70.83,115.69,76.87l6.73,4.4v34.94h-0.26c-69.71-46.59-110.94-74.19-123.71-82.82
		c-51.93-34.68-85.32-56.94-100.16-66.77c-17.43-11.91-34.08-23.03-49.95-33.39v182.72v0.26h-27.95c-0.17,0-0.26-0.09-0.26-0.26
		V207.86z"/>
</g>
</svg>
