<svg fill="#7f8fa6" height="512pt" viewBox="0 0 512 512" width="512pt" xmlns="http://www.w3.org/2000/svg"><path d="m256 95c-88.773438 0-161 72.222656-161 161s72.226562 161 161 161 161-72.222656 161-161-72.226562-161-161-161zm86.140625 176h-101.140625v-142.667969h30v112.667969h71.140625zm0 0"/><path d="m437.019531 74.980469c-48.351562-48.351563-112.640625-74.980469-181.019531-74.980469s-132.667969 26.628906-181.019531 74.980469c-48.351563 48.351562-74.980469 112.640625-74.980469 181.019531s26.628906 132.667969 74.980469 181.019531c48.351562 48.351563 112.640625 74.980469 181.019531 74.980469s132.667969-26.628906 181.019531-74.980469c48.351563-48.351562 74.980469-112.640625 74.980469-181.019531s-26.628906-132.667969-74.980469-181.019531zm-181.019531 372.019531c-105.316406 0-191-85.683594-191-191s85.683594-191 191-191 191 85.683594 191 191-85.683594 191-191 191zm0 0"/></svg>
