<svg fill="#bfcbde" clip-rule="evenodd" fill-rule="evenodd" height="512" stroke-linejoin="round" stroke-miterlimit="2" viewBox="0 0 24 24" width="512" xmlns="http://www.w3.org/2000/svg"><g transform="translate(-328 -460)"><path d="m344 463v5c0 .552-.448 1-1 1h-6c-.552 0-1-.448-1-1v-5h-4c-.552 0-1 .448-1 1v14c0 1.657 1.343 3 3 3h12c1.657 0 3-1.343 3-3 0-3.646 0-11 0-11 0-.267-.107-.522-.296-.71l-3.027-3c-.187-.186-.44-.29-.704-.29zm-4 8c-1.656 0-3 1.344-3 3s1.344 3 3 3 3-1.344 3-3-1.344-3-3-3zm2-8h-4v4h4z"/></g></svg>
