<svg fill="#c45958" id="svg6" clip-rule="evenodd" fill-rule="evenodd" height="512" stroke-linejoin="round" stroke-miterlimit="2" viewBox="0 0 24 24" width="512" xmlns="http://www.w3.org/2000/svg" xmlns:svg="http://www.w3.org/2000/svg"><path id="path2" d="m12 2c-5.519 0-10 4.481-10 10s4.481 10 10 10 10-4.481 10-10-4.481-10-10-10zm0 8.586 3.293-3.293c.39-.39 1.024-.39 1.414 0s.39 1.024 0 1.414l-3.293 3.293 3.293 3.293c.39.39.39 1.024 0 1.414s-1.024.39-1.414 0l-3.293-3.293-3.293 3.293c-.39.39-1.024.39-1.414 0s-.39-1.024 0-1.414l3.293-3.293-3.293-3.293c-.39-.39-.39-1.024 0-1.414s1.024-.39 1.414 0z"/></svg>
