<svg fill="#7f8fa6" height="512pt" viewBox="-183 0 512 512" width="512pt" xmlns="http://www.w3.org/2000/svg"><path d="m72.574219 145.148438c40.015625 0 72.574219-32.558594 72.574219-72.574219s-32.558594-72.574219-72.574219-72.574219-72.574219 32.558594-72.574219 72.574219 32.558594 72.574219 72.574219 72.574219zm0 0"/><path d="m72.574219 183.425781c-40.015625 0-72.574219 32.558594-72.574219 72.574219s32.558594 72.574219 72.574219 72.574219 72.574219-32.558594 72.574219-72.574219-32.558594-72.574219-72.574219-72.574219zm0 0"/><path d="m72.574219 366.851562c-40.015625 0-72.574219 32.558594-72.574219 72.574219 0 40.019531 32.558594 72.574219 72.574219 72.574219s72.574219-32.554688 72.574219-72.574219c0-40.015625-32.558594-72.574219-72.574219-72.574219zm0 0"/></svg>
