<svg fill="#7f8fa6" id="svg6" clip-rule="evenodd" fill-rule="evenodd" height="512" stroke-linejoin="round" stroke-miterlimit="2" viewBox="0 0 24 24" width="512" xmlns="http://www.w3.org/2000/svg" xmlns:svg="http://www.w3.org/2000/svg"><path id="path2" d="m10.577 8.941-1.234-1.234c-.383-.383-.391-1.002-.018-1.396l.968-1.018c1.109-1.109 3.117-1.148 4.289-.117l1.297-1.297c.562-.563 1.325-.879 2.121-.879s1.559.316 2.121.879c.563.562.879 1.325.879 2.121s-.316 1.559-.879 2.121l-1.299 1.295c1.033 1.172.994 3.182-.115 4.291l-1.018.968c-.394.373-1.013.365-1.396-.018l-1.268-1.268-7.318 7.318c-.187.188-.442.293-.707.293h-3c-.552 0-1-.448-1-1v-3c0-.264.104-.517.29-.704zm-5.577 8.471v1.588h1.586l6.991-6.991-1.638-1.6z"/></svg>
