<svg fill="#7f8fa6" clip-rule="evenodd" fill-rule="evenodd" height="512" stroke-linejoin="round" stroke-miterlimit="2" viewBox="0 0 24 24" width="512" xmlns="http://www.w3.org/2000/svg"><g transform="translate(-240 -20)"><path d="m253.672 26.086-9.697 9.696c-.138.138-.232.313-.272.503l-.732 3.511c-.068.327.031.667.266.905.234.239.572.344.901.281l3.561-.682c.196-.038.377-.133.519-.275l9.696-9.697zm1.414-1.414 4.242 4.242.793-.793c.563-.562.879-1.325.879-2.121s-.316-1.559-.879-2.121c-.562-.563-1.325-.879-2.121-.879s-1.559.316-2.121.879z"/></g></svg>
