<svg fill="#7f8fa6" clip-rule="evenodd" fill-rule="evenodd" height="512" stroke-linejoin="round" stroke-miterlimit="2" viewBox="0 0 24 24" width="512" xmlns="http://www.w3.org/2000/svg"><g transform="translate(-328 -20)"><path d="m335.293 34.707 3 3c.39.391 1.024.391 1.414 0l5-5-1.414-1.414-4.293 4.293s-2.293-2.293-2.293-2.293zm-.536 2.293-.878-.879c-.781-.781-.781-2.047 0-2.828l1.414-1.414c.781-.781 2.047-.781 2.828 0l.879.878 2.879-2.878c.781-.781 2.047-.781 2.828 0l1.414 1.414c.781.781.781 2.047 0 2.828l-2.878 2.879h1.757c2.76 0 5-2.24 5-5 0-2.267-1.512-4.183-3.582-4.796-1.079-2.473-3.548-4.204-6.418-4.204-3.563 0-6.508 2.668-6.944 6.112-1.753.425-3.056 2.006-3.056 3.888 0 2.208 1.792 4 4 4z"/></g></svg>
