<svg fill="#7f8fa6" id="svg6" clip-rule="evenodd" fill-rule="evenodd" height="512" stroke-linejoin="round" stroke-miterlimit="2" viewBox="0 0 24 24" width="512" xmlns="http://www.w3.org/2000/svg" xmlns:svg="http://www.w3.org/2000/svg"><path id="path2" d="m8.37 8.106 2.773-4.62c.18-.302.506-.486.857-.486s.677.184.857.486l2.773 4.62 4.566.913c.362.073.654.338.761.691s.011.736-.25.997l-3.563 3.563 1.805 5.414c.128.383.012.806-.294 1.071-.305.265-.74.32-1.102.139l-5.553-2.776-5.553 2.776c-.362.181-.797.126-1.102-.139-.306-.265-.422-.688-.294-1.071l1.805-5.414-3.563-3.563c-.261-.261-.357-.644-.25-.997s.399-.618.761-.691z"/></svg>
