<svg fill="#7f8fa6" id="Layer_1" height="512" viewBox="0 0 24 24" width="512" xmlns="http://www.w3.org/2000/svg" data-name="Layer 1"><path d="m21 5h-18a1 1 0 0 0 0 2h2v12a3.0042 3.0042 0 0 0 3 3h8a3.0042 3.0042 0 0 0 3-3v-12h2a1 1 0 0 0 0-2zm-6.5254 9.5605a1 1 0 0 1 -1.4141 1.4141l-1.0605-1.0605-1.0605 1.0605a1 1 0 0 1 -1.4141-1.4141l1.0605-1.0605-1.0605-1.0605a1 1 0 0 1 1.4141-1.4141l1.0605 1.0605 1.0605-1.0605a1 1 0 0 1 1.4141 1.4141l-1.0605 1.0605z"/><path d="m10 4h4a1 1 0 0 0 0-2h-4a1 1 0 0 0 0 2z"/></svg>
